<?xml version="1.0" encoding="utf-8"?>
<!-- Generator: Adobe Illustrator 24.2.0, SVG Export Plug-In . SVG Version: 6.00 Build 0)  -->
<svg version="1.1" id="Layer_1" xmlns="http://www.w3.org/2000/svg" xmlns:xlink="http://www.w3.org/1999/xlink" x="0px" y="0px"
	 viewBox="0 0 123 30" style="enable-background:new 0 0 123 30;" xml:space="preserve">
<style type="text/css">
	.st0{fill:#045618;}
</style>
<g>
	<g>
		<path d="M9.23,6.68h5.74h0.52v1.05h-0.52H9.23v16.25v0.52H8.18v-0.52V7.73H2.39H1.86V6.68h0.52h5.79H9.23z"/>
		<path d="M19.16,14.3c1.05-1.57,2.83-2.39,4.93-2.39h0.52v1.05h-0.52c-2.86,0-4.9,1.83-4.93,5.11v0.13v0.52v5.24v0.52h-1.05v-0.52
			v-5.24v-0.52c0-0.05,0-0.08,0-0.13v-5.63v-0.52h1.05v0.52V14.3z"/>
		<path d="M25.92,18.21c0-3.51,2.62-6.29,5.77-6.29c1.94,0,3.67,1.05,4.72,2.67v-2.15v-0.52h1.05v0.52v5.77v5.77v0.52H36.4v-0.52
			v-2.15c-1.05,1.62-2.78,2.67-4.72,2.67C28.54,24.5,25.92,21.72,25.92,18.21z M26.97,18.21c0,2.88,2.1,5.24,4.72,5.24
			s4.72-2.36,4.72-5.24s-2.1-5.24-4.72-5.24S26.97,15.33,26.97,18.21z"/>
		<path d="M51.61,23.98l0.03,0.55h-1.02L50.58,24l-0.03-6.76c0-2.33-1.73-4.27-3.93-4.27c-2.2,0-3.93,1.94-3.93,4.27v0.52v6.21v0.52
			h-1.05v-0.52v-6.21v-0.52v-4.8v-0.52h1.05v0.52v1.52c0.92-1.23,2.33-2.04,3.93-2.04c2.73,0,4.98,2.36,4.98,5.32V23.98z"/>
		<path d="M64.05,15.3h-1.05c0-1.36-1.62-2.33-3.38-2.33s-3.38,0.97-3.38,2.33c0,2.57,8.28,2.15,8.26,5.82
			c0,1.76-2.02,3.38-4.87,3.38s-4.87-1.62-4.87-3.38h1.05c0,1.39,1.86,2.33,3.83,2.33c1.97,0,3.83-0.94,3.83-2.33
			c0-2.59-8.23-2.12-8.26-5.82c0-1.78,1.89-3.38,4.43-3.38S64.05,13.52,64.05,15.3z"/>
		<path d="M69.24,11.92h3.12h0.52v1.05h-0.52h-3.15v11.01v0.52h-1.05v-0.52V12.97H66.6h-0.52v-1.05h0.52h1.6
			c0.16-3.72,1.97-5.27,4.17-5.27h0.52V7.7h-0.52C70.58,7.7,69.4,9.22,69.24,11.92z"/>
		<path d="M84.37,21.35l0.84,0.63c-0.79,1.1-2.25,2.54-4.98,2.52c-3.17,0-5.77-2.78-5.77-6.29s2.59-6.29,5.77-6.29
			c3.15,0,5.77,2.78,5.77,6.29v0.52h-0.52h-9.93c0.24,2.65,2.2,4.72,4.69,4.72C82.48,23.48,83.69,22.3,84.37,21.35z M75.53,17.69
			h9.41c0-2.36-2.1-4.72-4.72-4.72C77.74,12.97,75.77,15.04,75.53,17.69z"/>
		<path d="M90.18,14.3c1.05-1.57,2.83-2.39,4.93-2.39h0.52v1.05h-0.52c-2.86,0-4.9,1.83-4.93,5.11v0.13v0.52v5.24v0.52h-1.05v-0.52
			v-5.24v-0.52c0-0.05,0-0.08,0-0.13v-5.63v-0.52h1.05v0.52V14.3z"/>
	</g>
	<g>
		<rect x="112.35" y="5.46" class="st0" width="3.64" height="19.09"/>
		<polygon class="st0" points="107.8,20.06 105.97,24.54 96.62,5.63 100.65,5.63 		"/>
		<polygon class="st0" points="97.41,16.65 97.41,24.54 102.05,24.54 		"/>
		<circle class="st0" cx="119.04" cy="22.44" r="2.1"/>
	</g>
</g>
</svg>
