<?xml version="1.0" encoding="utf-8"?>
<!-- Generator: Adobe Illustrator 24.2.0, SVG Export Plug-In . SVG Version: 6.00 Build 0)  -->
<svg version="1.1" id="Layer_1" xmlns="http://www.w3.org/2000/svg" xmlns:xlink="http://www.w3.org/1999/xlink" x="0px" y="0px"
	 viewBox="0 0 342 60" style="enable-background:new 0 0 342 60;" xml:space="preserve">
<style type="text/css">
	.st0{fill:#2D2C2B;}
	.st1{fill:#FFCC01;}
</style>
<g>
	<g>
		<path class="st0" d="M109.71,3.66h9.7c5.75,0,8.62,2.26,8.62,6.78c0,2.24-0.98,4.1-2.95,5.59c2.85,1.24,4.28,3.45,4.28,6.63
			c0,2.44-0.84,4.38-2.52,5.82c-0.82,0.69-1.7,1.17-2.64,1.45c-0.94,0.27-2.2,0.41-3.79,0.41h-1.51v-6.86h1.35
			c0.79,0,1.36-0.1,1.68-0.3c0.33-0.2,0.49-0.56,0.49-1.07c0-0.86-0.66-1.29-1.99-1.29h-1.52v-7.11c1.46,0,2.19-0.5,2.19-1.51
			c0-0.93-0.66-1.39-1.97-1.39h-1.47v19.53h-7.94V3.66z"/>
		<path class="st0" d="M145.21,3c3.78,0,7.02,1.37,9.72,4.12c2.7,2.75,4.06,6.04,4.06,9.87c0,3.9-1.36,7.21-4.09,9.93
			c-2.72,2.72-6.03,4.09-9.93,4.09c-3.87,0-7.17-1.37-9.91-4.1c-2.74-2.74-4.1-6.04-4.1-9.91c0-3.91,1.38-7.22,4.13-9.93
			C137.85,4.36,141.22,3,145.21,3z M144.97,10.86c-1.63,0-3.02,0.6-4.16,1.8c-1.15,1.2-1.72,2.65-1.72,4.34
			c0,1.69,0.58,3.14,1.73,4.34c1.15,1.2,2.54,1.8,4.15,1.8c1.64,0,3.03-0.6,4.17-1.79c1.14-1.19,1.71-2.64,1.71-4.35
			c0-1.71-0.57-3.16-1.71-4.35C148.01,11.45,146.62,10.86,144.97,10.86z"/>
		<path class="st0" d="M220.21,3.66v7.66h-6.06v19.02h-7.94V11.33h-6.08c-0.57-0.2-2.64-0.47-2.95-0.47c-0.6,0-1.11,0.22-1.54,0.66
			c-0.43,0.44-0.65,0.98-0.65,1.6c0,0.53,0.24,1.21,0.7,2.03l0.61,1.06c1.09,1.9,1.64,3.74,1.64,5.51c0,2.59-0.92,4.79-2.77,6.59
			c-1.84,1.8-4.09,2.7-6.75,2.7c-1.28,0-2.54-0.29-3.79-0.88v-7.72c0.76,0.48,1.43,0.72,2.01,0.72c0.69,0,1.27-0.2,1.73-0.6
			c0.46-0.4,0.69-0.9,0.69-1.5c0-0.39-0.37-1.24-1.11-2.56c-1.19-2.08-1.78-4.17-1.78-6.25c0-2.51,0.9-4.68,2.69-6.5
			c1.79-1.82,3.93-2.73,6.42-2.73c1.09,0,3.79,0.3,4.85,0.66H220.21z"/>
	</g>
	<g>
		<path class="st1" d="M169.97,3c-3.99,0-7.36,1.35-10.11,4.07c-2.76,2.71-4.13,6.02-4.13,9.93c0,3.87,1.37,7.17,4.1,9.91
			c0.06,0.06,0.11,0.11,0.17,0.16c0.18-0.4,0.34-0.8,0.49-1.2c0.16-0.41,0.31-0.84,0.51-1.23c0.33-0.65,0.71-1.27,1.15-1.86
			c0.39-0.52,0.81-1.01,1.3-1.44c0.2-0.17,0.43-0.31,0.64-0.47c-0.28-0.2-0.57-0.37-0.86-0.55c-0.17-0.1-0.17-0.1-0.14-0.3
			c0.11-0.69,0.22-1.38,0.33-2.07c0-0.03,0.01-0.07,0.02-0.1c0-0.02,0.01-0.03,0.04-0.02c0.07,0.04,0.08-0.01,0.09-0.06
			c0.04-0.15,0.08-0.3,0.12-0.45c0.06-0.2-0.06-0.35-0.27-0.35c-0.18,0-0.34,0.08-0.49,0.16c-0.27,0.16-0.51,0.35-0.75,0.56
			c-0.51,0.46-0.97,0.98-1.41,1.52c-0.47,0.56-0.91,1.15-1.34,1.75c-0.19,0.26-0.36,0.52-0.55,0.78c-0.06,0.09-0.07,0.09-0.16,0.04
			c-0.07-0.04-0.17-0.06-0.2-0.12c-0.04-0.07,0.04-0.15,0.07-0.22c0.23-0.64,0.49-1.27,0.76-1.89c0.29-0.67,0.62-1.32,0.98-1.96
			c0.32-0.57,0.68-1.12,1.1-1.62c0.42-0.51,0.89-0.97,1.48-1.28c0.36-0.19,0.73-0.31,1.14-0.3c0.19,0,0.37,0.04,0.56,0.11
			c0.08-0.2,0.16-0.39,0.25-0.59c0.32-0.74,0.67-1.45,1.07-2.15c0.29-0.5,0.59-0.99,0.92-1.46c0.21-0.29,0.42-0.58,0.65-0.87
			c0.29-0.36,0.58-0.71,0.9-1.04c0.32-0.35,0.66-0.69,1.02-1.01c0.37-0.33,0.76-0.63,1.14-0.95c0.24-0.2,0.51-0.35,0.76-0.52
			c0.25-0.18,0.51-0.33,0.78-0.49c0.38-0.22,0.76-0.42,1.13-0.65c0.06-0.04,0.13-0.05,0.2-0.07c0.4-0.13,0.78-0.31,1.17-0.45
			c0.21-0.08,0.43-0.15,0.64-0.21C173.6,3.34,171.85,3,169.97,3z M179.69,7.12c-0.75-0.77-1.55-1.42-2.38-1.98
			c0.16,0.94,0.21,1.89,0.18,2.85c-0.02,0.51-0.05,1.01-0.13,1.51c-0.01,0.07-0.01,0.13-0.02,0.2c-0.02,0.48-0.18,0.94-0.28,1.4
			c-0.13,0.61-0.31,1.2-0.52,1.78c-0.22,0.6-0.46,1.18-0.74,1.75c-0.32,0.65-0.68,1.28-1.07,1.89c-0.38,0.6-0.8,1.17-1.25,1.73
			c-0.3,0.37-0.6,0.73-0.93,1.07c-0.04,0.04-0.06,0.08-0.1,0.13c0.17,0.17,0.3,0.35,0.39,0.57c0.15,0.37,0.2,0.76,0.17,1.15
			c-0.06,0.67-0.28,1.29-0.57,1.89c-0.26,0.53-0.56,1.03-0.89,1.52c-0.21,0.3-0.43,0.6-0.65,0.89c-0.26,0.34-0.53,0.67-0.81,0.98
			c-0.27,0.3-0.54,0.61-0.82,0.91c-0.19,0.21-0.39,0.41-0.59,0.61c-0.04,0.05-0.08,0.07-0.14,0.01c-0.06-0.06-0.18-0.09-0.2-0.17
			c-0.01-0.08,0.07-0.15,0.11-0.22c0.38-0.65,0.74-1.32,1.08-2c0.27-0.54,0.52-1.08,0.75-1.64c0.21-0.51,0.39-1.04,0.48-1.59
			c0.04-0.24,0.07-0.48-0.01-0.72c-0.04-0.13-0.12-0.22-0.25-0.25c-0.06-0.01-0.1-0.01-0.15,0.04c-0.73,0.64-1.52,1.22-2.3,1.79
			c-0.09,0.07-0.1,0.07-0.2,0c-0.28-0.18-0.56-0.36-0.84-0.53c-0.02-0.02-0.05-0.03-0.08-0.04c0,0.39-0.13,0.74-0.24,1.11
			c-0.14,0.45-0.3,0.9-0.48,1.33c-0.27,0.65-0.59,1.28-0.98,1.88c-0.32,0.5-0.68,0.97-1.05,1.43c-0.29,0.36-0.58,0.72-0.87,1.08
			c1.93,1,4.07,1.51,6.41,1.51c3.9,0,7.21-1.36,9.93-4.09c2.72-2.72,4.08-6.03,4.08-9.93C183.75,13.16,182.39,9.87,179.69,7.12z"/>
		<circle class="st1" cx="172.85" cy="10.02" r="1.45"/>
	</g>
	<polygon class="st1" points="118.27,5.57 120.65,9.69 123.03,13.8 118.27,13.8 113.52,13.8 115.9,9.69 	"/>
</g>
<g>
	<path class="st0" d="M112.07,56.08V43.19c0-1.6,0.48-2.9,1.45-3.92c0.97-1.01,2.23-1.52,3.77-1.52c1.83,0,3.24,0.84,4.23,2.53
		c0.6-0.91,1.25-1.56,1.94-1.95c0.69-0.39,1.54-0.58,2.55-0.58c1.61,0,2.84,0.51,3.69,1.52c0.86,1.01,1.28,2.47,1.28,4.37v12.43
		h-5.32V44.45c0-0.58-0.05-0.96-0.14-1.15c-0.09-0.19-0.28-0.28-0.56-0.28c-0.52,0-0.79,0.45-0.79,1.34v11.72h-5.32V44.45
		c0-0.57-0.05-0.95-0.14-1.14c-0.1-0.19-0.28-0.29-0.56-0.29c-0.52,0-0.79,0.48-0.79,1.43v11.63H112.07z"/>
	<path class="st0" d="M146.82,38.2l-5.06,7.95v9.93h-5.32v-9.93l-5.1-7.95h5.4l2.31,3.68l2.48-3.68H146.82z"/>
	<path class="st0" d="M159.74,38.2v17.88h-5.32V38.2H159.74z"/>
	<path class="st0" d="M162.95,56.08v-11.6c0-2.03,0.61-3.66,1.83-4.89c1.22-1.22,2.84-1.83,4.87-1.83c2.02,0,3.56,0.59,4.63,1.78
		c1.07,1.19,1.6,2.89,1.6,5.12v11.42h-5.32V44.66c0-1.09-0.39-1.64-1.17-1.64c-0.75,0-1.13,0.55-1.13,1.64v11.42H162.95z"/>
	<path class="st0" d="M202.04,38.2v5.13h-4.06v12.74h-5.32V43.34h-4.07c-0.38-0.13-1.77-0.31-1.98-0.31c-0.4,0-0.75,0.15-1.04,0.44
		c-0.29,0.3-0.43,0.65-0.43,1.07c0,0.36,0.16,0.81,0.47,1.36l0.41,0.71c0.73,1.27,1.1,2.51,1.1,3.69c0,1.74-0.62,3.21-1.85,4.41
		c-1.24,1.21-2.74,1.81-4.53,1.81c-0.86,0-1.7-0.2-2.54-0.59v-5.17c0.51,0.32,0.96,0.48,1.35,0.48c0.46,0,0.85-0.13,1.16-0.4
		c0.31-0.27,0.47-0.6,0.47-1c0-0.26-0.25-0.83-0.75-1.72c-0.79-1.4-1.19-2.79-1.19-4.19c0-1.69,0.6-3.14,1.8-4.36
		c1.2-1.22,2.64-1.83,4.3-1.83c0.73,0,2.54,0.2,3.25,0.45H202.04z"/>
	<path class="st0" d="M210.49,47.11v4.72h-1.53v4.26h-5.32V44.71c0-2.2,0.6-3.91,1.8-5.13c1.2-1.22,2.89-1.83,5.06-1.83
		c2.1,0,3.65,0.55,4.65,1.66c1,1.1,1.51,2.81,1.51,5.11v11.55h-5.32v-11.2c0-0.7-0.08-1.18-0.25-1.45
		c-0.17-0.27-0.46-0.41-0.89-0.41c-0.83,0-1.24,0.62-1.24,1.86v2.23H210.49z"/>
</g>
</svg>
